<svg width="120" height="120" viewBox="0 0 120 120" xmlns="http://www.w3.org/2000/svg">
  <defs>
    <linearGradient id="siriusBg" x1="0%" y1="0%" x2="100%" y2="100%">
      <stop offset="0%" stop-color="#252320" />
      <stop offset="100%" stop-color="#181715" />
    </linearGradient>
    <linearGradient id="siriusStar" x1="0%" y1="0%" x2="100%" y2="100%">
      <stop offset="0%" stop-color="#e8a55a" />
      <stop offset="55%" stop-color="#cc785c" />
      <stop offset="100%" stop-color="#a9583e" />
    </linearGradient>
  </defs>
  <rect width="120" height="120" rx="28" fill="url(#siriusBg)" />
  <!-- four-point sparkle (Sirius, the brightest star) -->
  <path d="M60 18 C63 44 76 57 102 60 C76 63 63 76 60 102 C57 76 44 63 18 60 C44 57 57 44 60 18 Z"
        fill="url(#siriusStar)" stroke="#faf9f5" stroke-width="1.5" stroke-linejoin="round" />
  <!-- small companion sparkle -->
  <path d="M92 30 C93 38 97 42 105 43 C97 44 93 48 92 56 C91 48 87 44 79 43 C87 42 91 38 92 30 Z"
        fill="#5db8a6" opacity="0.9" />
  <circle cx="60" cy="60" r="6" fill="#faf9f5" opacity="0.92" />
</svg>
